<?xml version="1.0" encoding="UTF-8"?>
<svg id="Layer_2" data-name="Layer 2" xmlns="http://www.w3.org/2000/svg" viewBox="0 0 92.56 16.04">
  <g id="Layer_1-2" data-name="Layer 1">
    <path d="M27.71,12.88c-.12-.12-.21-.19-.29-.27-.53-.59-1.05-1.18-1.59-1.76-.2-.22-.21-.41-.08-.65.22-.42.35-.88.44-1.34.11-.62.11-1.23-.02-1.84-.41-1.91-2.01-3.47-3.9-3.81-2.29-.41-4.84.87-5.57,3.57-.69,2.55.74,5.4,3.83,6.05.73.15,1.46.1,2.17-.09.06-.01.11-.03.16-.05.22-.09.39-.03.53.16.09.11.19.21.29.32.43.48.87.96,1.29,1.44.1.12.23.22.26.37-.03.15-.15.19-.25.24-.72.34-1.46.61-2.24.72-2.5.37-4.72-.26-6.65-1.89-1.36-1.15-2.23-2.63-2.55-4.38-.84-4.56,1.96-8.26,5.57-9.34,1.12-.34,2.25-.38,3.41-.24,2.85.35,5.42,2.51,6.37,5.05.39,1.05.59,2.13.53,3.25-.07,1.31-.46,2.53-1.12,3.67-.12.21-.26.41-.39.62-.05.07-.11.12-.2.22Z"/>
    <path d="M74.71,9.47c.09.14.15.25.23.36,1.31,1.83,2.62,3.66,3.93,5.5.11.15.24.28.28.5-.09.03-.16.08-.24.08-1.13,0-2.27,0-3.4,0-.21,0-.36-.07-.47-.24-.07-.11-.15-.21-.22-.32-1.14-1.65-2.28-3.31-3.42-4.96-.11-.15-.22-.3-.34-.47-.57,0-1.14,0-1.73,0-.03.12-.07.21-.08.3-.01.16,0,.32,0,.47,0,1.54,0,3.07,0,4.61,0,.17-.01.34-.02.53-.12.03-.21.07-.3.07-.76,0-1.52,0-2.28,0-.06,0-.11,0-.17-.02-.17-.03-.22-.08-.24-.25,0-.11,0-.23,0-.34,0-2.68,0-5.37,0-8.05,0-.6,0-.6.59-.6,1.56,0,3.13,0,4.69,0,.27,0,.55,0,.82-.01.35-.01.69-.08.99-.25.59-.32.92-.82.9-1.5-.02-.68-.38-1.15-1-1.43-.42-.18-.86-.22-1.31-.22-.9,0-1.81,0-2.71,0-.14,0-.29,0-.43,0-1.22-.04-2.18-.82-2.47-2.02-.06-.24-.09-.48-.07-.72.01-.18.08-.25.27-.27.1-.01.2,0,.3,0,1.92,0,3.85-.02,5.77,0,2.55.02,4.41,1.96,4.78,4.01.36,2.02-.57,3.99-2.18,4.97-.13.08-.26.17-.44.29Z"/>
    <path d="M82.47,15.8c-.01-.12-.04-.26-.04-.4,0-.32,0-.63,0-.95,0-4.52,0-9.04,0-13.56,0-.23-.04-.46.1-.7.14-.01.3-.04.45-.04,2.97,0,5.94,0,8.91,0,.2,0,.4.02.61.04.03.11.06.19.06.27,0,.83,0,1.66,0,2.5,0,.29-.05.33-.32.34-.14,0-.29,0-.43,0-1.81,0-3.62,0-5.42,0-.17,0-.34,0-.52.01-.08,0-.16.05-.25.07-.01.11-.03.21-.03.31,0,.77,0,1.55,0,2.32,0,.36.03.39.39.4.27.01.55,0,.82,0,1.09,0,2.18,0,3.27,0,.18,0,.37-.02.57.1.01.11.03.24.03.36,0,.76,0,1.52,0,2.28,0,.04,0,.09,0,.13-.02.23-.06.28-.28.3-.17.01-.34,0-.52,0-1.23,0-2.47,0-3.7,0-.18,0-.38-.04-.55.1-.01.05-.03.1-.03.16,0,.88,0,1.75,0,2.63,0,.06.02.11.04.18.08.03.16.07.24.07.14.01.29,0,.43,0,1.82,0,3.64,0,5.47,0,.19,0,.37,0,.56.01.15.01.21.07.22.21,0,.09,0,.17,0,.26,0,.72,0,1.44,0,2.15,0,.09,0,.17,0,.26-.01.17-.07.22-.25.24-.1,0-.2,0-.3,0-3,0-6,0-9,0-.17,0-.35.03-.54-.09Z"/>
    <path d="M42.39.19c.13-.01.27-.04.41-.04.72,0,1.43,0,2.15,0,.46,0,.49.03.49.49,0,2.55,0,5.11,0,7.66,0,.57,0,1.15,0,1.72,0,.93-.21,1.82-.59,2.67-.5,1.11-1.29,1.96-2.35,2.55-.93.52-1.94.77-3,.8-1.1.03-2.14-.19-3.12-.68-1.03-.51-1.82-1.28-2.37-2.3-.51-.94-.77-1.94-.78-3.01,0-.89,0-1.78,0-2.67,0-2.2,0-4.39,0-6.59,0-.18-.02-.37.05-.57.11-.02.22-.06.33-.06.79,0,1.58,0,2.37,0,.1,0,.19.03.31.06.02.11.05.2.05.3,0,.24,0,.49,0,.73,0,2.65,0,5.31,0,7.96,0,.48.03.95.16,1.41.2.73.6,1.33,1.21,1.77,1.12.81,2.58.61,3.46-.18.66-.59,1.01-1.35,1.09-2.22.03-.27.03-.54.03-.82,0-2.73,0-5.45,0-8.18,0-.25-.03-.52.09-.79Z"/>
    <path d="M2.25,11.31c.12.1.22.18.31.26.58.5,1.23.89,1.95,1.15.69.25,1.38.23,2.06-.03.23-.09.44-.22.61-.39.17-.16.29-.36.35-.58.12-.42.06-.8-.26-1.11-.1-.1-.22-.19-.33-.27-.55-.4-1.16-.68-1.78-.94-.61-.25-1.22-.51-1.82-.78-.51-.23-.98-.53-1.41-.9-1.09-.92-1.56-2.09-1.45-3.51.1-1.17.55-2.16,1.42-2.95C2.6.64,3.41.27,4.32.1c.96-.18,1.91-.12,2.85.14.95.26,1.84.63,2.66,1.18.12.08.23.17.34.26.09.08.09.17.03.27-.03.05-.06.1-.1.14-.51.64-1.02,1.28-1.53,1.92-.05.07-.1.14-.15.22-.2-.11-.35-.2-.49-.29-.39-.24-.8-.44-1.23-.6-.59-.22-1.2-.27-1.82-.13-.24.05-.47.14-.67.27-.44.3-.6.71-.54,1.23.02.19.11.35.23.5.17.2.37.36.6.48.31.15.62.3.94.43.49.2.99.38,1.48.58.69.28,1.34.64,1.96,1.07.11.07.21.15.31.23,1.05.81,1.58,1.86,1.58,3.19,0,1.7-.74,3.01-2.13,3.94-.85.57-1.81.85-2.84.89-2.23.09-4.08-.73-5.62-2.32,0-.01-.02-.02-.03-.03-.21-.23-.21-.28.02-.49.62-.58,1.24-1.15,1.86-1.72.05-.05.11-.08.22-.16Z"/>
    <path d="M64.94,15.86c-.17,0-.3.02-.43.02-.69,0-1.38,0-2.07,0-.09,0-.17,0-.26,0-.12,0-.22-.06-.29-.16-.06-.1-.12-.19-.18-.29-1.9-3.26-3.79-6.52-5.69-9.78-.08-.13-.12-.29-.29-.36-.15.1-.21.27-.3.42-1.04,1.78-2.08,3.57-3.11,5.36-.86,1.49-1.73,2.98-2.59,4.46-.07.12-.16.23-.25.37-.96,0-1.92,0-2.9,0,.02-.12.01-.2.04-.26.07-.14.15-.28.23-.42,2.88-4.95,5.75-9.9,8.63-14.84.08-.13.13-.29.28-.35.15.05.19.18.25.29,1.31,2.24,2.61,4.49,3.92,6.73,1.59,2.74,3.19,5.48,4.78,8.22.07.12.14.25.21.38.02.05.02.11.03.22Z"/>
  </g>
</svg>